<svg width="21" height="20" viewBox="0 0 21 20" fill="none" xmlns="http://www.w3.org/2000/svg">
<path d="M10.4998 14.3175C12.8194 14.3175 14.6998 12.6081 14.6998 10.4995H6.2998C6.2998 12.6081 8.18021 14.3175 10.4998 14.3175Z" fill="#3D8AA9"/>
<path d="M8.3998 7.63596C8.3998 8.16314 7.9297 8.59047 7.3498 8.59047C6.76991 8.59047 6.2998 8.16314 6.2998 7.63596C6.2998 7.10881 6.76991 6.68146 7.3498 6.68146C7.9297 6.68146 8.3998 7.10881 8.3998 7.63596Z" fill="#3D8AA9"/>
<path d="M13.6501 8.59047C14.23 8.59047 14.7001 8.16314 14.7001 7.63596C14.7001 7.10881 14.23 6.68146 13.6501 6.68146C13.0702 6.68146 12.6001 7.10881 12.6001 7.63596C12.6001 8.16314 13.0702 8.59047 13.6501 8.59047Z" fill="#3D8AA9"/>
<path fill-rule="evenodd" clip-rule="evenodd" d="M21 9.54501C21 14.8166 16.2989 19.0901 10.5 19.0901C4.70101 19.0901 0 14.8166 0 9.54501C0 4.27341 4.70101 -6.10352e-05 10.5 -6.10352e-05C16.2989 -6.10352e-05 21 4.27341 21 9.54501ZM18.9 9.54501C18.9 13.7623 15.1392 17.1811 10.5 17.1811C5.86081 17.1811 2.1 13.7623 2.1 9.54501C2.1 5.32773 5.86081 1.90895 10.5 1.90895C15.1392 1.90895 18.9 5.32773 18.9 9.54501Z" fill="#3D8AA9"/>
</svg>
